<svg viewBox="0 0 32 32" fill="none" xmlns="http://www.w3.org/2000/svg">
  <path
    d="M16.0741 19.8519C17.2196 19.8519 18.1481 20.7815 18.1481 21.9259C18.1481 23.0704 17.2196 24 16.0741 24C14.9285 24 14 23.0704 14 21.9259C14 20.7815 14.9285 19.8519 16.0741 19.8519ZM16.0741 13.9259C17.2196 13.9259 18.1481 14.8556 18.1481 16C18.1481 17.1444 17.2196 18.0741 16.0741 18.0741C14.9285 18.0741 14 17.1444 14 16C14 14.8556 14.9285 13.9259 16.0741 13.9259ZM16.0741 12.1481C14.9285 12.1481 14 11.2185 14 10.0741C14 8.92852 14.9285 8 16.0741 8C17.2196 8 18.1481 8.92852 18.1481 10.0741C18.1481 11.2185 17.2196 12.1481 16.0741 12.1481Z"
    fill="currentColor"/>
</svg>
