<svg viewBox="0 0 32 32" fill="none" xmlns="http://www.w3.org/2000/svg">
  <path
    d="M8 10.1429C8 9.51179 8.51179 9 9.14286 9H22.8571C23.4893 9 24 9.51179 24 10.1429C24 10.775 23.4893 11.2857 22.8571 11.2857H9.14286C8.51179 11.2857 8 10.775 8 10.1429ZM8 15.8571C8 15.225 8.51179 14.7143 9.14286 14.7143H22.8571C23.4893 14.7143 24 15.225 24 15.8571C24 16.4893 23.4893 17 22.8571 17H9.14286C8.51179 17 8 16.4893 8 15.8571ZM22.8571 22.7143H9.14286C8.51179 22.7143 8 22.2036 8 21.5714C8 20.9393 8.51179 20.4286 9.14286 20.4286H22.8571C23.4893 20.4286 24 20.9393 24 21.5714C24 22.2036 23.4893 22.7143 22.8571 22.7143Z"
    fill="currentColor"/>
</svg>
