<svg viewBox="0 0 32 32" fill="none" xmlns="http://www.w3.org/2000/svg">
  <path
    d="M23.3922 21.8003C23.6033 22.0114 23.7219 22.2977 23.7219 22.5963C23.7219 22.8948 23.6033 23.1811 23.3922 23.3922C23.1811 23.6033 22.8948 23.7219 22.5963 23.7219C22.2977 23.7219 22.0114 23.6033 21.8003 23.3922L16.3609 17.9528L10.9216 23.3922C10.7105 23.6033 10.4242 23.7219 10.1256 23.7219C9.82709 23.7219 9.54078 23.6033 9.32969 23.3922C9.11859 23.1811 9 22.8948 9 22.5963C9 22.2977 9.11859 22.0114 9.32969 21.8003L14.7691 16.3609L9.32969 10.9216C9.11859 10.7105 9 10.4242 9 10.1256C9 9.82709 9.11859 9.54078 9.32969 9.32969C9.54078 9.11859 9.82709 9 10.1256 9C10.4242 9 10.7105 9.11859 10.9216 9.32969L16.3609 14.7691L21.8003 9.32969C22.0114 9.11859 22.2977 9 22.5963 9C22.8948 9 23.1811 9.11859 23.3922 9.32969C23.6033 9.54078 23.7219 9.82709 23.7219 10.1256C23.7219 10.4242 23.6033 10.7105 23.3922 10.9216L17.9528 16.3609L23.3922 21.8003Z"
    fill="currentColor"/>
</svg>
