<?xml version="1.0" standalone="no"?>
<!DOCTYPE svg PUBLIC "-//W3C//DTD SVG 20010904//EN"
 "http://www.w3.org/TR/2001/REC-SVG-20010904/DTD/svg10.dtd">
<svg version="1.0" xmlns="http://www.w3.org/2000/svg"
 width="700.000000pt" height="700.000000pt" viewBox="0 0 700.000000 700.000000"
 preserveAspectRatio="xMidYMid meet">
<metadata>
Created by potrace 1.14, written by Peter Selinger 2001-2017
</metadata>
<g transform="translate(0.000000,700.000000) scale(0.100000,-0.100000)"
fill="#000000" stroke="none">
<path d="M3278 6995 c-1 -1 -42 -5 -89 -9 -47 -4 -95 -8 -105 -10 -10 -2 -41
-7 -69 -10 -428 -56 -875 -210 -1270 -439 -103 -60 -265 -165 -315 -204 -8 -6
-51 -40 -95 -74 -353 -275 -673 -651 -897 -1054 -49 -87 -148 -289 -148 -301
0 -2 -9 -23 -20 -47 -57 -123 -157 -435 -186 -582 -2 -11 -10 -54 -19 -95 -22
-115 -30 -160 -41 -255 -26 -230 -26 -667 1 -826 2 -13 6 -46 9 -74 9 -78 22
-152 51 -285 21 -96 91 -339 114 -395 5 -11 25 -65 46 -120 63 -166 249 -531
312 -610 4 -6 34 -49 65 -95 170 -255 433 -535 708 -755 92 -74 370 -265 386
-265 4 0 15 -6 23 -14 26 -22 298 -158 411 -205 267 -111 589 -200 859 -237
25 -3 57 -8 71 -10 163 -25 682 -25 842 1 13 2 46 7 73 10 71 10 87 13 115 18
14 3 43 8 65 12 22 4 76 16 120 27 44 10 87 21 96 23 25 5 157 45 219 65 178
57 568 235 660 300 15 11 33 20 39 20 6 0 11 5 11 10 0 6 5 10 10 10 15 0 220
141 330 227 152 118 324 280 450 422 36 41 70 79 76 85 6 6 48 61 94 121 150
197 277 405 383 628 26 53 47 99 47 102 0 2 11 28 24 57 57 127 151 421 182
573 17 81 54 301 59 350 4 33 9 71 11 85 9 47 11 525 3 605 -15 165 -21 220
-24 225 -2 3 -6 30 -10 60 -9 75 -69 337 -99 435 -174 571 -466 1062 -881
1478 -384 385 -846 672 -1360 845 -168 57 -420 119 -555 137 -19 3 -46 7 -60
10 -13 2 -52 7 -86 11 -33 3 -74 8 -90 10 -32 5 -540 14 -546 9z m458 -1078
c115 -40 176 -77 261 -158 218 -210 264 -548 110 -814 -110 -190 -329 -322
-547 -329 -200 -6 -370 62 -507 203 -376 389 -154 1041 382 1125 73 11 230 -3
301 -27z m-1346 -1348 c413 -100 581 -132 865 -166 88 -10 467 -10 560 0 188
22 372 54 590 103 11 2 29 6 40 8 11 2 106 25 210 50 182 45 260 54 330 41 58
-12 136 -54 188 -104 91 -86 137 -194 138 -321 0 -169 -84 -316 -221 -389 -68
-37 -421 -123 -800 -196 -118 -23 -147 -28 -162 -27 -10 0 -21 -4 -25 -11 -4
-6 -8 -482 -8 -1057 l-2 -1045 -26 -72 c-59 -165 -179 -271 -357 -314 -60 -15
-260 -18 -325 -5 -201 40 -340 165 -391 352 -18 65 -19 123 -19 1106 l0 1037
-60 6 c-33 4 -67 9 -75 10 -8 2 -36 6 -63 9 -106 15 -329 66 -572 131 -33 9
-85 23 -115 31 -198 52 -322 199 -337 400 -17 217 124 411 329 458 72 16 115
11 308 -35z"/>
</g>
</svg>
